<svg xmlns="http://www.w3.org/2000/svg" viewBox="0 0 640 400" role="img" aria-labelledby="title desc">
  <title id="title">Boat image placeholder</title>
  <desc id="desc">Placeholder illustration shown when an item has no uploaded image.</desc>
  <defs>
    <linearGradient id="sky" x1="0" y1="0" x2="0" y2="1">
      <stop offset="0%" stop-color="#e8f2fb" />
      <stop offset="100%" stop-color="#f9fcff" />
    </linearGradient>
    <linearGradient id="sea" x1="0" y1="0" x2="0" y2="1">
      <stop offset="0%" stop-color="#cfe3f3" />
      <stop offset="100%" stop-color="#b7d2e8" />
    </linearGradient>
  </defs>

  <rect width="640" height="400" fill="url(#sky)" />
  <rect y="250" width="640" height="150" fill="url(#sea)" />

  <g fill="none" stroke="#9ebdd4" stroke-width="4" stroke-linecap="round" opacity="0.55">
    <path d="M20 295c26-12 53-12 79 0s53 12 79 0 53-12 79 0 53 12 79 0 53-12 79 0 53 12 79 0 53-12 79 0" />
    <path d="M20 327c26-12 53-12 79 0s53 12 79 0 53-12 79 0 53 12 79 0 53-12 79 0 53 12 79 0 53-12 79 0" />
  </g>

  <path d="M210 228h220l-24 42H230z" fill="#4c6f8d" />
  <rect x="282" y="176" width="34" height="50" rx="4" fill="#5f85a7" />
  <rect x="324" y="176" width="34" height="50" rx="4" fill="#5f85a7" />
  <path d="M320 106l-70 112h140z" fill="#7aa3c4" />

  <g fill="#4f6d88">
    <circle cx="299" cy="201" r="4" />
    <circle cx="341" cy="201" r="4" />
  </g>

  <rect x="195" y="268" width="250" height="48" rx="14" fill="#f6fbff" opacity="0.92" />
  <text x="320" y="296" font-family="Manrope, sans-serif" font-size="20" font-weight="700" text-anchor="middle" fill="#3c5f7d">
    Sin imagen cargada
  </text>
</svg>
